#!OML:ASF G:\JayActor3\Patient Classification 1\Patient 1\Session 6\male.ASF
:FULLY-SPECIFIED
:DEGREES
1070
root 11.56 16.0976 -5.32491 19.8757 -50.2253 -10.2706
lowerback 30.942 -2.04532 5.06263
upperback 4.63473 -1.35874 -1.06859
thorax -11.0901 -0.922232 -3.34265
lowerneck -5.26037 -1.30398 1.56877
upperneck 24.1852 -2.97014 2.35989
head 8.37592 -1.17951 0.245649
rclavicle 7.07673e-014 -3.18055e-014
rhumerus 10.1431 30.6279 -72.1707
rradius 132.096
rwrist 8.89226
rhand 24.5167 -33.7402
rfingers 7.12502
rthumb 48.717 -55.6114
lclavicle 7.07673e-014 -3.18055e-014
lhumerus -47.7203 -19.8231 87.4492
lradius 46.9816
lwrist 33.4982
lhand -17.8219 14.088
lfingers 7.12502
lthumb 8.44222 43.8993
rfemur -39.5378 -7.14048 31.8108
rtibia 45.0078
rfoot -19.9013 -8.95277
rtoes 10.0433
lfemur -35.3466 13.0547 -19.1523
ltibia 41.7961
lfoot -18.2188 -5.32475
ltoes 8.30333
1071
root 11.5426 16.1139 -5.30555 19.505 -50.474 -10.3806
lowerback 30.7249 -1.98711 4.98895
upperback 4.46046 -1.3025 -1.01348
thorax -11.1865 -0.896175 -3.26915
lowerneck -5.21514 -1.32042 1.59739
upperneck 24.2208 -2.9776 2.25767
head 8.37757 -1.19162 0.206104
rclavicle -6.36111e-015 -1.98785e-014
rhumerus 9.76815 30.998 -72.5618
rradius 131.916
rwrist 8.77906
rhand 24.1916 -33.7539
rfingers 7.12502
rthumb 48.4179 -55.7694
lclavicle -6.36111e-015 -1.98785e-014
lhumerus -47.8081 -19.9258 87.5418
lradius 47.089
lwrist 33.4033
lhand -18.1472 14.2399
lfingers 7.12502
lthumb 8.12826 44.0636
rfemur -38.6102 -6.70177 31.6349
rtibia 44.5666
rfoot -19.9133 -9.18214
rtoes 10.3219
lfemur -34.3588 13.0227 -18.9507
ltibia 41.2957
lfoot -18.2549 -5.13526
ltoes 8.27946
1072
root 11.5255 16.1284 -5.28757 19.1533 -50.7302 -10.4777
lowerback 30.5052 -1.92051 4.90502
upperback 4.30988 -1.24009 -0.958517
thorax -11.2542 -0.866028 -3.19248
lowerneck -5.16423 -1.33021 1.61836
upperneck 24.2196 -2.97295 2.16032
head 8.36569 -1.19846 0.170765
rclavicle 8.34896e-014 -5.725e-014
rhumerus 9.42972 31.3715 -72.9274
rradius 131.788
rwrist 8.57633
rhand 23.8712 -33.7935
rfingers 7.12502
rthumb 48.1228 -55.9488
lclavicle 8.34896e-014 -5.725e-014
lhumerus -47.8136 -19.9536 87.5833
lradius 47.1214
lwrist 33.3213
lhand -18.2906 14.2291
lfingers 7.12502
lthumb 7.98989 44.058
rfemur -37.7473 -6.26214 31.473
rtibia 44.1667
rfoot -19.934 -9.41482
rtoes 10.6113
lfemur -33.4201 13.0312 -18.7788
ltibia 40.8126
lfoot -18.3014 -4.9718
ltoes 8.28239
1073
root 11.5095 16.1412 -5.26988 18.8318 -51.0015 -10.5534
lowerback 30.2518 -1.84444 4.81731
upperback 4.18513 -1.17009 -0.908786
thorax -11.2778 -0.831074 -3.12254
lowerneck -5.10789 -1.33797 1.63554
upperneck 24.1789 -2.96134 2.06088
head 8.33932 -1.20267 0.136259
rclavicle -1.63003e-014 4.77083e-015
rhumerus 9.14455 31.7374 -73.2499
rradius 131.702
rwrist 8.32026
rhand 23.6026 -33.8538
rfingers 7.12502
rthumb 47.8752 -56.1246
lclavicle -1.63003e-014 4.77083e-015
lhumerus -47.7541 -19.94 87.6029
lradius 47.1143
lwrist 33.202
lhand -18.362 14.2041
lfingers 7.12502
lthumb 7.92098 44.0357
rfemur -36.974 -5.8424 31.3173
rtibia 43.8091
rfoot -19.951 -9.62443
rtoes 10.9087
lfemur -32.546 13.0688 -18.6494
ltibia 40.3413
lfoot -18.3619 -4.81403
ltoes 8.29109
1074
root 11.4955 16.1528 -5.25138 18.5546 -51.2961 -10.6039
lowerback 29.8045 -1.75428 4.72298
upperback 4.47278 -1.09966 -0.758644
thorax -11.4986 -0.814578 -3.16467
lowerneck -5.04339 -1.344 1.65478
upperneck 24.0977 -2.94224 1.95146
head 8.29741 -1.20426 0.0990695
rclavicle -3.18055e-015 2.06736e-014
rhumerus 8.93128 32.1022 -73.5166
rradius 131.646
rwrist 8.04999
rhand 23.4198 -33.9131
rfingers 7.12502
rthumb 47.7065 -56.2617
lclavicle -3.18055e-015 2.06736e-014
lhumerus -47.6538 -19.8981 87.6059
lradius 47.098
lwrist 33.0646
lhand -18.4164 14.2135
lfingers 7.12502
lthumb 7.86843 44.047
rfemur -36.311 -5.45313 31.1583
rtibia 43.4946
rfoot -19.9476 -9.78811
rtoes 11.1828
lfemur -31.7531 13.1278 -18.5738
ltibia 39.8792
lfoot -18.4365 -4.64302
ltoes 8.27065
1075
root 11.4833 16.1632 -5.23156 18.3231 -51.6241 -10.6354
lowerback 29.4384 -1.66839 4.64404
upperback 4.38785 -1.02358 -0.735883
thorax -11.4042 -0.773663 -3.12369
lowerneck -4.97244 -1.35111 1.67904
upperneck 23.9846 -2.91822 1.82103
head 8.24313 -1.20508 0.0547811
rclavicle -3.53837e-014 2.38542e-015
rhumerus 8.79604 32.4753 -73.7182
rradius 131.603
rwrist 7.79893
rhand 23.3279 -33.9593
rfingers 7.12502
rthumb 47.6217 -56.3468
lclavicle -3.53837e-014 2.38542e-015
lhumerus -47.5261 -19.8352 87.6039
lradius 47.0765
lwrist 32.9145
lhand -18.4848 14.2078
lfingers 7.12502
lthumb 7.80247 44.0438
rfemur -35.7514 -5.0804 30.9876
rtibia 43.2228
rfoot -19.9204 -9.89496
rtoes 11.4309
lfemur -31.0349 13.2065 -18.5471
ltibia 39.426
lfoot -18.5175 -4.46455
ltoes 8.25898
